<?xml version="1.0"?>
<svg id="Layer_1" data-name="Layer 1" xmlns="http://www.w3.org/2000/svg" viewBox="0 0 1080 350">
  <polygon points="410.13 112.93 371.42 112.93 371.42 71.79 344.25 71.79 344.25 179.41 371.42 179.41 371.42 135.69 410.13 135.69 410.13 179.41 437.3 179.41 437.3 71.79 410.13 71.79 410.13 112.93"></polygon>
  <path d="M549.64,85.75c-5.16-5.05-11.24-8.98-18.22-11.76-6.99-2.78-14.63-4.18-22.92-4.18s-15.94,1.4-22.92,4.18c-6.99,2.78-13.06,6.71-18.22,11.76-5.16,5.06-9.18,10.96-12.07,17.69-2.88,6.73-4.32,14.03-4.32,21.93s1.46,15.26,4.4,22.09c2.93,6.83,7.01,12.79,12.22,17.84,5.21,5.07,11.31,9.01,18.29,11.85,6.99,2.83,14.62,4.25,22.92,4.25s15.76-1.4,22.69-4.18c6.93-2.78,12.98-6.73,18.14-11.85,5.16-5.1,9.18-11.06,12.07-17.83,2.88-6.78,4.32-14.12,4.32-22.01s-1.44-15.23-4.32-22.01c-2.88-6.78-6.91-12.7-12.07-17.76ZM534.61,142.07c-2.43,4.76-5.87,8.45-10.32,11.08-4.45,2.63-9.72,3.95-15.79,3.95-4.55,0-8.65-.74-12.3-2.21-3.64-1.46-6.78-3.58-9.41-6.37-2.63-2.78-4.63-6.11-5.99-10.02-1.37-3.89-2.05-8.26-2.05-13.13,0-6.26,1.22-11.79,3.64-16.54,2.43-4.76,5.87-8.43,10.32-11.01,4.45-2.58,9.72-3.87,15.79-3.87,4.55,0,8.65.75,12.3,2.27,3.64,1.52,6.78,3.67,9.41,6.45,2.63,2.79,4.63,6.1,6,9.94,1.36,3.85,2.05,8.1,2.05,12.75,0,6.39-1.22,11.95-3.64,16.7Z"></path>
  <polygon points="606.87 71.79 579.69 71.79 579.69 179.41 601.25 179.41 606.87 179.41 653.17 179.41 653.17 156.04 606.87 156.04 606.87 71.79"></polygon>
  <polygon points="692.93 71.79 665.76 71.79 665.76 179.41 687.32 179.41 692.93 179.41 739.23 179.41 739.23 156.04 692.93 156.04 692.93 71.79"></polygon>
  <path d="M840.33,85.75c-5.16-5.05-11.24-8.98-18.22-11.76-6.99-2.78-14.63-4.18-22.92-4.18s-15.94,1.4-22.92,4.18c-6.99,2.78-13.06,6.71-18.22,11.76-5.16,5.06-9.18,10.96-12.07,17.69-2.88,6.73-4.32,14.03-4.32,21.93s1.46,15.26,4.4,22.09c2.93,6.83,7.01,12.79,12.22,17.84,5.21,5.07,11.31,9.01,18.29,11.85,6.99,2.83,14.62,4.25,22.92,4.25s15.76-1.4,22.69-4.18c6.93-2.78,12.98-6.73,18.14-11.85,5.16-5.1,9.18-11.06,12.07-17.83,2.88-6.78,4.32-14.12,4.32-22.01s-1.44-15.23-4.32-22.01c-2.88-6.78-6.91-12.7-12.07-17.76ZM825.3,142.07c-2.43,4.76-5.87,8.45-10.32,11.08-4.45,2.63-9.72,3.95-15.79,3.95-4.55,0-8.65-.74-12.3-2.21-3.64-1.46-6.78-3.58-9.41-6.37-2.63-2.78-4.63-6.11-5.99-10.02-1.37-3.89-2.05-8.26-2.05-13.13,0-6.26,1.22-11.79,3.64-16.54s5.87-8.43,10.32-11.01c4.45-2.58,9.72-3.87,15.79-3.87,4.55,0,8.65.75,12.3,2.27,3.64,1.52,6.78,3.67,9.41,6.45,2.63,2.79,4.63,6.1,6,9.94,1.37,3.85,2.05,8.1,2.05,12.75,0,6.39-1.22,11.95-3.64,16.7Z"></path>
  <polygon points="963.48 135.11 944.93 71.79 923.22 71.79 904.74 134.85 886.03 71.79 859.16 71.79 893.31 179.41 915.33 179.41 934.01 115.35 952.82 179.41 974.68 179.41 1008.99 71.79 982.27 71.79 963.48 135.11"></polygon>
  <g>
    <path d="M264.11,71.94v91.71c-.1.03-.2.06-.28.12l-8.98,5.44c-.35.21-.56.6-.56,1v90.75l-9.33,3.79V80.05l1.18-.73,8.17-3.35v78.79c-1.13.66-1.85,2.19-1.85,3.99,0,2.43,1.33,4.33,3.03,4.33s3.03-1.9,3.03-4.33c0-1.8-.72-3.33-1.86-3.99v-79.74l7.47-3.07Z"></path>
    <path d="M174.19,153.36l-19.01,7.79v-72.93l9.62-4.07v56.3c-.75.65-1.21,1.87-1.21,3.22,0,2.07,1.04,3.69,2.38,3.69s2.39-1.62,2.39-3.69c0-1.36-.46-2.57-1.21-3.22v-58.08c0-.39-.2-.76-.53-.97-.33-.22-.74-.26-1.1-.1l-10.34,4.37v-5.41l1.18-.73,17.79-7.3.04,81.12Z"></path>
    <path d="M243.46,265.15V80.19h-37.48l-.2.08v36.32c1.49.5,2.51,1.9,2.51,3.49,0,2.04-1.65,3.69-3.69,3.69s-3.69-1.65-3.69-3.69c0-1.59,1.02-2.99,2.52-3.49v-36.4h-9.3v82.48h-40.44v-74.16h-14.44v69.3c1.85.52,3.16,2.22,3.16,4.17,0,2.39-1.94,4.33-4.33,4.33s-4.34-1.94-4.34-4.33c0-1.94,1.31-3.65,3.16-4.17v-70.48c0-.65.53-1.17,1.18-1.17h15.61v-5.76h-38.55l.37,84.35,23.27,17.33c.29.22.47.57.47.95v89.35h14.44v-78.7h40.43v78.55c0,.09.06.15.11.15h49.22v-4.89h-10.13c-.65,0-1.17-.53-1.17-1.18v-73.6l-28.23-19.89c-.32-.22-.49-.58-.49-.96v-37.42c0-.43.24-.84.62-1.04l28.1-14.9v-27.01c-1.85-.52-3.16-2.23-3.16-4.17,0-2.39,1.94-4.33,4.33-4.33s4.34,1.94,4.34,4.33c0,1.93-1.32,3.65-3.16,4.17v27.71c0,.43-.24.84-.62,1.04l-28.1,14.91v36.1l28.22,19.89c.32.22.5.58.5.96v73.03h8.96ZM153.98,168.21l.35-.03v.02s.09,0,.13,0c.16,0,.32.02.45.03,1.39.2,2.52,1.16,2.97,2.48h31.77c.52-1.85,2.23-3.16,4.17-3.16,2.39,0,4.33,1.94,4.33,4.33s-1.94,4.33-4.33,4.33c-1.93,0-3.65-1.31-4.17-3.15h-31.77c-.44,1.31-1.58,2.27-2.95,2.47-.27.03-.58.05-.84.02h-.1c-1.88-.22-3.29-1.79-3.29-3.66s1.41-3.44,3.29-3.66ZM205.29,195.06c.3.22.49.57.49.95v66c1.49.5,2.51,1.9,2.51,3.49,0,2.04-1.65,3.7-3.69,3.7s-3.69-1.66-3.69-3.7c0-1.59,1.02-2.98,2.52-3.49v-65.41l-15.29-11.05h-30.26c-.44,1.31-1.58,2.28-2.97,2.47-.14.03-.33.05-.49.03-.16,0-.32,0-.44-.03-1.87-.2-3.28-1.78-3.28-3.66s1.41-3.44,3.29-3.65c.06,0,.11-.02.17-.03.11,0,.18,0,.27,0,.15,0,.35.02.5.04,1.38.2,2.51,1.16,2.95,2.47h30.64c.26,0,.49.08.69.22l16.08,11.63ZM233.32,180.51c-2.04,0-3.69-1.65-3.69-3.69,0-1.59,1.02-2.98,2.52-3.49v-36.32c-1.5-.5-2.52-1.91-2.52-3.49,0-2.04,1.65-3.69,3.69-3.69s3.7,1.65,3.7,3.69c0,1.59-1.03,2.99-2.52,3.49v36.32c1.49.49,2.52,1.9,2.52,3.49,0,2.04-1.66,3.69-3.7,3.69Z"></path>
    <path d="M136.91,183.62v88.77h-32.6c-.05,0-.1-.06-.1-.15v-94.13l8.8,6.86v77.05c-1.49.5-2.52,1.9-2.52,3.49,0,2.04,1.66,3.7,3.7,3.7s3.69-1.66,3.69-3.7c0-1.59-1.02-2.98-2.52-3.49v-77.63c0-.36-.16-.7-.45-.92l-10.7-8.34v-94.72h8.59l.37,84.95c0,.37.18.72.47.94l23.27,17.33Z"></path>
    <path d="M165.23,255.94c0,1.45-.66,2.41-1.11,2.41s-1.11-.96-1.11-2.41.66-2.41,1.11-2.41,1.11.96,1.11,2.41Z"></path>
    <path d="M256.57,158.74c0,1.45-.66,2.41-1.11,2.41s-1.11-.96-1.11-2.41.66-2.42,1.11-2.42,1.11.96,1.11,2.42Z"></path>
    <path d="M178.13,157.73c0,.43-.96,1.1-2.41,1.1s-2.42-.66-2.42-1.1.96-1.11,2.42-1.11,2.41.66,2.41,1.11Z"></path>
    <path d="M235.74,87.33c0,1.33-1.08,2.41-2.42,2.41s-2.41-1.08-2.41-2.41,1.08-2.41,2.41-2.41,2.42,1.08,2.42,2.41Z"></path>
    <path d="M196.22,171.86c0,1.33-1.08,2.41-2.41,2.41s-2.41-1.08-2.41-2.41,1.08-2.41,2.41-2.41,2.41,1.08,2.41,2.41Z"></path>
    <path d="M140.5,161.98c0,1.33-1.08,2.41-2.41,2.41s-2.42-1.08-2.42-2.41,1.08-2.42,2.42-2.42,2.41,1.08,2.41,2.42Z"></path>
    <path d="M172.4,71.34l-18.48,7.57h-34.57l11.16-3.65h18.21c.65.76,1.86,1.22,3.21,1.22.8,0,1.57-.17,2.22-.49.38-.19.71-.41.95-.68.36-.38.54-.79.54-1.22s-.18-.84-.53-1.23c-.25-.26-.57-.49-.95-.67-.65-.32-1.41-.49-2.22-.49-1.36,0-2.57.46-3.21,1.21h-18.4c-.12,0-.25.03-.37.06l-16.36,5.35c-.29.09-.54.31-.67.58h-6.1l22.88-7.57h42.7Z"></path>
    <path d="M261.63,71.34l-5.49,2.25c-.2-.14-.43-.21-.67-.21h-37.37c-.14,0-.26.02-.4.07l-13.49,4.89c-.2.07-.36.2-.49.36h-6.26l22.22-7.36h41.97Z"></path>
    <path d="M264.11,166.33v97.49c0,.06-.03.12-.08.14l-19.08,7.94v-4.62l10.94-4.45c.44-.18.73-.61.73-1.08v-90.88l7.48-4.53Z"></path>
    <polygon points="250.96 75.73 243.69 78.7 210.09 78.7 218.3 75.73 250.96 75.73"></polygon>
    <g>
      <path d="M179.7,158.9h12.9v2.28s-33.36-.09-33.36-.09l13.3-5.45c-.72.54-1.17,1.27-1.17,2.09,0,1.7,1.91,3.02,4.34,3.02,1.79,0,3.33-.72,3.99-1.85Z"></path>
      <path d="M192.62,154.24v2.32h-12.91c-.66-1.13-2.2-1.85-3.99-1.85-.38,0-.76.03-1.11.09l1.38-.56h16.63Z"></path>
    </g>
    <path d="M161.1,255.94c0,2.43,1.33,4.33,3.03,4.33s3.03-1.9,3.03-4.33c0-1.79-.72-3.33-1.86-3.99v-39.68c0-.07.04-.13.09-.16l8.76-4.96v56.67c0,.06-.03.12-.08.14l-18.89,7.88v-76.66h18.96v9.32c-.08.03-.14.06-.21.09l-10.39,5.87c-.37.21-.59.61-.59,1.02v40.48c-1.13.66-1.86,2.19-1.86,3.98Z"></path>
  </g>
  <g>
    <path d="M357.3,275.38v-58.11h-12.87v-8.97h35.54v8.97h-12.87v58.11h-9.79Z"></path>
    <path d="M386.58,275.38v-67.08h36.17v8.97h-26.38v19.76h26.38v8.98h-26.38v20.4h26.38v8.97h-36.17Z"></path>
    <path d="M496.17,258.79c-6.8,11.69-17.59,17.86-31,17.86-18.58,0-33.9-16.68-33.9-34.54,0-20.22,15.95-35.08,33.99-35.08,12.69,0,24.57,5.8,31.37,18.4h-11.78c-5.08-5.89-10.97-9.43-18.86-9.43-14.05,0-24.93,11.88-24.93,25.2,0,14.05,10.61,26.47,24.39,26.47,6.98,0,13.23-2.72,18.67-8.88h12.06Z"></path>
    <path d="M542.94,275.38v-29.19h-27.65v29.19h-9.79v-67.08h9.79v28.92h27.65v-28.92h9.79v67.08h-9.79Z"></path>
    <path d="M609.38,275.38l-33.18-51.85h-.18v51.85h-9.79v-67.08h10.7l32.63,51.04h.18v-51.04h9.79v67.08h-10.15Z"></path>
    <path d="M664.13,276.65c-18.58,0-34.36-15.95-34.36-34.09,0-20.58,15.77-35.54,34.63-35.54,19.94,0,35.17,15.68,35.17,34.36,0,20.31-15.68,35.26-35.45,35.26ZM689.79,242.02c0-13.87-10.52-26.02-24.66-26.02-18.13,0-25.56,15.59-25.56,25.56,0,13.51,9.79,26.11,25.11,26.11s25.11-13.42,25.11-25.65Z"></path>
    <path d="M710.17,275.38v-67.08h9.79v58.11h23.3v8.97h-33.09Z"></path>
    <path d="M781.06,276.65c-18.58,0-34.36-15.95-34.36-34.09,0-20.58,15.77-35.54,34.63-35.54,19.94,0,35.17,15.68,35.17,34.36,0,20.31-15.68,35.26-35.45,35.26ZM806.71,242.02c0-13.87-10.52-26.02-24.66-26.02-18.13,0-25.56,15.59-25.56,25.56,0,13.51,9.79,26.11,25.11,26.11s25.11-13.42,25.11-25.65Z"></path>
    <path d="M849.95,251v-8.97h42.43c-.63,22.3-17.5,34.63-35.35,34.63s-33.63-15.77-33.63-33.9c0-21.76,16.68-35.72,33.63-35.72,12.87,0,23.93,6.07,30.73,18.13h-11.42c-5.71-6.53-11.42-9.16-18.86-9.16-13.05,0-24.29,12.33-24.29,25.56,0,14.14,11.15,26.11,24.66,26.11,10.61,0,19.13-5.89,23.39-16.68h-31.27Z"></path>
    <path d="M902.06,275.38v-67.08h9.79v67.08h-9.79Z"></path>
    <path d="M924.45,275.38v-67.08h36.17v8.97h-26.38v19.76h26.38v8.98h-26.38v20.4h26.38v8.97h-36.17Z"></path>
    <path d="M997.42,225.71c0-6.07-3.9-9.7-9.43-9.7-4.71,0-8.97,4.26-8.97,9.16s3.17,7.43,9.7,9.52c14.5,4.62,19.85,10.06,19.85,21.67s-8.7,20.31-20.58,20.31-20.49-8.52-20.67-21.12h9.79c.09,7.25,4.35,12.15,10.88,12.15s10.79-4.71,10.79-11.33c0-4.9-2.18-7.98-9.34-10.42-16.59-5.62-20.22-11.06-20.22-20.58,0-10.24,8.43-18.31,18.76-18.31,11.06,0,19.04,6.98,19.22,18.67h-9.79Z"></path>
  </g>
</svg>
