<?xml version="1.0"?>
<svg id="Layer_1" xmlns="http://www.w3.org/2000/svg" version="1.1" viewBox="0 0 316.7 316.7">

  <defs>

  </defs>
  <path class="st0" d="M252.16,44.53v107.6c-.12.03-.23.07-.33.14l-10.54,6.38c-.41.25-.66.7-.66,1.17v106.48l-10.95,4.45V54.04l1.38-.86,9.58-3.93v92.44c-1.32.77-2.17,2.57-2.17,4.68,0,2.85,1.56,5.08,3.55,5.08s3.55-2.23,3.55-5.08c0-2.11-.85-3.91-2.18-4.68V48.13l8.77-3.6Z"></path>
  <path class="st0" d="M146.66,140.06l-22.3,9.14V63.63l11.29-4.77v66.06c-.88.76-1.42,2.19-1.42,3.78,0,2.43,1.22,4.33,2.79,4.33s2.8-1.9,2.8-4.33c0-1.59-.54-3.02-1.42-3.78V56.78c0-.46-.23-.89-.62-1.14-.39-.26-.87-.3-1.29-.12l-12.13,5.13v-6.35l1.38-.86,20.87-8.56.05,95.18Z"></path>
  <path class="st0" d="M227.93,271.22V54.21h-43.97l-.24.09v42.62c1.75.59,2.95,2.23,2.95,4.1,0,2.39-1.94,4.33-4.33,4.33s-4.33-1.94-4.33-4.33c0-1.87,1.2-3.51,2.96-4.1v-42.71h-10.91v96.77h-47.45V63.97h-16.94v81.31c2.17.61,3.71,2.61,3.71,4.89,0,2.8-2.28,5.08-5.08,5.08s-5.09-2.28-5.09-5.08c0-2.28,1.54-4.28,3.71-4.89V62.59c0-.76.62-1.37,1.38-1.37h18.31v-6.76h-45.23l.44,98.97,27.3,20.33c.34.26.55.67.55,1.11v104.84h16.94v-92.34h47.44v92.16c0,.11.07.18.13.18h57.75v-5.74h-11.89c-.76,0-1.37-.62-1.37-1.38v-86.35l-33.12-23.34c-.37-.26-.58-.68-.58-1.13v-43.9c0-.51.28-.98.73-1.22l32.97-17.48v-31.69c-2.17-.61-3.71-2.62-3.71-4.89,0-2.8,2.28-5.08,5.08-5.08s5.09,2.28,5.09,5.08c0,2.27-1.55,4.28-3.71,4.89v32.51c0,.51-.28.98-.73,1.22l-32.97,17.49v42.36l33.11,23.34c.37.26.59.68.59,1.13v85.69h10.51ZM122.95,157.48l.41-.04v.02c.05-.01.11-.01.15-.01.19,0,.37.02.53.04,1.63.23,2.96,1.36,3.48,2.91h37.27c.61-2.17,2.62-3.71,4.89-3.71,2.8,0,5.08,2.28,5.08,5.08s-2.28,5.08-5.08,5.08c-2.27,0-4.28-1.54-4.89-3.7h-37.27c-.52,1.54-1.85,2.66-3.46,2.9-.32.04-.68.06-.99.02h-.12c-2.2-.26-3.86-2.1-3.86-4.3s1.66-4.04,3.86-4.29ZM183.15,188.99c.35.26.57.67.57,1.11v77.44c1.75.59,2.95,2.23,2.95,4.09,0,2.39-1.94,4.34-4.33,4.34s-4.33-1.95-4.33-4.34c0-1.86,1.2-3.5,2.96-4.09v-76.74l-17.94-12.96h-35.51c-.52,1.54-1.85,2.67-3.48,2.9-.17.03-.39.06-.58.04-.19,0-.37-.01-.52-.03-2.19-.24-3.85-2.09-3.85-4.29s1.66-4.04,3.86-4.28c.07-.01.13-.02.2-.03.13-.01.21-.01.32-.01.18,0,.41.02.59.05,1.62.24,2.95,1.36,3.46,2.9h35.95c.3,0,.57.09.81.26l18.87,13.64ZM216.04,171.92c-2.39,0-4.33-1.94-4.33-4.33,0-1.86,1.2-3.5,2.96-4.09v-42.62c-1.76-.59-2.96-2.24-2.96-4.1,0-2.39,1.94-4.33,4.33-4.33s4.34,1.94,4.34,4.33c0,1.87-1.21,3.51-2.96,4.1v42.62c1.75.58,2.96,2.23,2.96,4.09,0,2.39-1.95,4.33-4.34,4.33Z"></path>
  <path class="st0" d="M102.92,175.56v104.15h-38.25c-.06,0-.12-.07-.12-.18v-110.44l10.33,8.05v90.4c-1.75.59-2.96,2.23-2.96,4.09,0,2.39,1.95,4.34,4.34,4.34s4.33-1.95,4.33-4.34c0-1.86-1.2-3.5-2.96-4.09v-91.08c0-.42-.19-.82-.53-1.08l-12.55-9.78V54.46h10.08l.44,99.67c0,.43.21.84.55,1.1l27.3,20.33Z"></path>
  <path class="st0" d="M136.15,260.42c0,1.7-.78,2.83-1.3,2.83s-1.3-1.13-1.3-2.83.78-2.83,1.3-2.83,1.3,1.13,1.3,2.83Z"></path>
  <path class="st0" d="M243.32,146.37c0,1.7-.78,2.83-1.3,2.83s-1.3-1.13-1.3-2.83.78-2.84,1.3-2.84,1.3,1.13,1.3,2.84Z"></path>
  <path class="st0" d="M151.28,145.19c0,.51-1.13,1.29-2.83,1.29s-2.84-.78-2.84-1.29,1.13-1.3,2.84-1.3,2.83.78,2.83,1.3Z"></path>
  <path class="st0" d="M218.88,62.59c0,1.56-1.27,2.83-2.84,2.83s-2.83-1.27-2.83-2.83,1.27-2.83,2.83-2.83,2.84,1.27,2.84,2.83Z"></path>
  <path class="st0" d="M172.51,161.77c0,1.56-1.27,2.83-2.83,2.83s-2.83-1.27-2.83-2.83,1.27-2.83,2.83-2.83,2.83,1.27,2.83,2.83Z"></path>
  <path class="st0" d="M107.13,150.17c0,1.56-1.27,2.83-2.83,2.83s-2.84-1.27-2.84-2.83,1.27-2.84,2.84-2.84,2.83,1.27,2.83,2.84Z"></path>
  <path class="st0" d="M144.56,43.83l-21.68,8.88h-40.56l13.09-4.28h21.37c.76.89,2.18,1.43,3.77,1.43.94,0,1.84-.2,2.6-.57.45-.22.83-.48,1.11-.8.42-.44.63-.93.63-1.43s-.21-.99-.62-1.44c-.29-.31-.67-.58-1.12-.79-.76-.37-1.66-.57-2.6-.57-1.59,0-3.01.54-3.77,1.42h-21.59c-.14,0-.29.03-.43.07l-19.19,6.28c-.34.11-.63.36-.79.68h-7.16l26.84-8.88h50.1Z"></path>
  <path class="st0" d="M249.25,43.83l-6.44,2.64c-.23-.16-.51-.25-.79-.25h-43.85c-.16,0-.31.02-.47.08l-15.83,5.74c-.23.08-.42.23-.58.42h-7.35l26.07-8.63h49.24Z"></path>
  <path class="st0" d="M252.16,155.28v114.38c0,.07-.03.14-.09.16l-22.39,9.32v-5.42l12.84-5.22c.52-.21.86-.71.86-1.27v-106.63l8.78-5.32Z"></path>
  <polygon class="st0" points="236.73 48.97 228.2 52.46 188.78 52.46 198.41 48.97 236.73 48.97"></polygon>
  <g>
    <path class="st0" d="M153.13,146.56h15.14v2.67s-39.14-.1-39.14-.1l15.6-6.39c-.85.63-1.37,1.49-1.37,2.45,0,1.99,2.24,3.54,5.09,3.54,2.1,0,3.91-.84,4.68-2.17Z"></path>
    <path class="st0" d="M168.28,141.09v2.72h-15.15c-.77-1.32-2.58-2.17-4.68-2.17-.45,0-.89.04-1.3.11l1.62-.66h19.51Z"></path>
  </g>
  <path class="st0" d="M131.3,260.42c0,2.85,1.56,5.08,3.55,5.08s3.55-2.23,3.55-5.08c0-2.1-.85-3.91-2.18-4.68v-46.56c.01-.08.05-.15.11-.19l10.28-5.82v66.49c0,.07-.03.14-.09.16l-22.16,9.24v-89.94h22.25v10.93c-.09.03-.17.07-.25.11l-12.19,6.89c-.43.25-.69.71-.69,1.2v47.5c-1.33.77-2.18,2.57-2.18,4.67Z"></path>
</svg>
